<svg xmlns="http://www.w3.org/2000/svg" viewBox="0 0 1376 267"><defs><style>.cls-1,.cls-2{fill:#fff;}.cls-2{font-size:364.9px;font-family:Renogare-Regular, Renogare;}</style></defs><g id="Layer_2" data-name="Layer 2"><path class="cls-1" d="M126,267h10.5c-3.54,0-7-.18-10.5-.51Z"/><path class="cls-1" d="M230.65,217c-22.08,30.47-56.05,50-94.15,50H364V217Z"/><path class="cls-1" d="M781.75,217q17,22,38.15,49.82H752V267H922V217Z"/><path class="cls-1" d="M1365.23,77.54a116.12,116.12,0,0,0-31-43.24Q1296.26.73,1236.78.73h-110.2V51.2h57.66v-.12h52.54q33.95,0,57.29,17.88t23.35,65.32q0,47.44-23.17,65.32t-57.47,17.88h-23.51l28.82,49.91A163.53,163.53,0,0,0,1291,258.9a127.06,127.06,0,0,0,43.24-24.64,122.21,122.21,0,0,0,30.65-44,144.15,144.15,0,0,0,11-56.37Q1375.81,102.9,1365.23,77.54Z"/><path class="cls-1" d="M254.87,109a147.78,147.78,0,0,1,0,50H364V109Z"/><path class="cls-1" d="M136.5,1c38.1,0,72.07,19.53,94.15,50H364V1Z"/><path class="cls-1" d="M126,1.51c3.46-.33,7-.51,10.5-.51H126Z"/><path class="cls-1" d="M804.36,109A89.86,89.86,0,0,1,791,144.29,87.69,87.69,0,0,1,779.12,159H922V109Z"/><path class="cls-1" d="M684,50.14v.36h32a62.78,62.78,0,0,0-6.74-.36Z"/><path class="cls-1" d="M718.78.5q22.68,1.65,40.84,11.33a83.31,83.31,0,0,1,33.94,32.84q1.62,2.86,3,5.83H922V.5Z"/><polygon class="cls-1" points="1118.16 51.12 1215.29 51.12 1215.29 0.61 1089.01 0.61 1118.16 51.12"/></g><g id="Layer_1" data-name="Layer 1"><text class="cls-2" transform="translate(-28.77 267.39)">D</text><text class="cls-2" transform="translate(341.51 267.3)">B</text><text class="cls-2" transform="translate(554.3 267.3)">R</text><path class="cls-1" d="M1158,135,1081.5,2.5,1005,135,928.51,267.5h306Zm-76.08,81H1008.6l36.66-63.5L1081.92,89l36.66,63.5,36.67,63.5Z"/></g></svg>